<svg xmlns="http://www.w3.org/2000/svg" viewBox="0 0 512 512">
  <defs>
    <linearGradient id="goldGradient" x1="0%" y1="0%" x2="100%" y2="100%">
      <stop offset="0%" style="stop-color:#FFD700;stop-opacity:1" />
      <stop offset="100%" style="stop-color:#B8860B;stop-opacity:1" />
    </linearGradient>
  </defs>
  
  <circle cx="256" cy="256" r="256" fill="#0a0f1c"/>
  
  <path d="M256 48C160 48 64 96 64 96v128c0 132 84 244 192 272 108-28 192-140 192-272V96s-96-48-192-48z" fill="url(#goldGradient)"/>
  
  <path d="M166 280l-40-90 70 40 60-80 60 80 70-40-40 90h-180z" fill="#0a0f1c" stroke="#0a0f1c" stroke-width="10" stroke-linejoin="round"/>
  
  <path d="M256 340c-40 0-60-20-60-20v-30s20 15 60 15 60-15 60-35-20-35-60-35-60-20-60-50 20-50 60-50 60 20 60 20v30s-20-15-60-15-60 15-60 35 20 35 60 35 60 20 60 50-20 50-60 50z" fill="#0a0f1c" opacity="0.2"/>
</svg>